<mxfile host="app.diagrams.net" modified="2023-03-27T17:52:21.675Z" agent="Mozilla/5.0 (Windows NT 10.0; Win64; x64) AppleWebKit/537.36 (KHTML, like Gecko) Chrome/111.0.0.0 Safari/537.36 Edg/111.0.1661.54" etag="NX9z6o-l_YMNwLkQ5T-h" version="21.1.1" type="browser">
  <diagram name="Page-1" id="ajSgFbMME55Ikb7Cw-K2">
    <mxGraphModel dx="551" dy="315" grid="1" gridSize="10" guides="1" tooltips="1" connect="1" arrows="1" fold="1" page="1" pageScale="1" pageWidth="850" pageHeight="1100" math="0" shadow="0">
      <root>
        <mxCell id="0" />
        <mxCell id="1" parent="0" />
        <mxCell id="9T1km2udPO_eC4dJc-jD-1" value="&lt;font style=&quot;font-size: 20px;&quot;&gt;1&lt;/font&gt;" style="ellipse;whiteSpace=wrap;html=1;aspect=fixed;" vertex="1" parent="1">
          <mxGeometry x="385" width="50" height="50" as="geometry" />
        </mxCell>
        <mxCell id="9T1km2udPO_eC4dJc-jD-2" value="&lt;font style=&quot;font-size: 20px;&quot;&gt;2&lt;/font&gt;" style="ellipse;whiteSpace=wrap;html=1;aspect=fixed;" vertex="1" parent="1">
          <mxGeometry x="320" y="80" width="50" height="50" as="geometry" />
        </mxCell>
        <mxCell id="9T1km2udPO_eC4dJc-jD-3" value="&lt;font style=&quot;font-size: 20px;&quot;&gt;3&lt;br&gt;5&lt;br&gt;&lt;/font&gt;" style="ellipse;whiteSpace=wrap;html=1;aspect=fixed;" vertex="1" parent="1">
          <mxGeometry x="450" y="80" width="50" height="50" as="geometry" />
        </mxCell>
        <mxCell id="9T1km2udPO_eC4dJc-jD-4" value="" style="endArrow=classic;html=1;rounded=0;exitX=0.17;exitY=0.91;exitDx=0;exitDy=0;exitPerimeter=0;entryX=0.798;entryY=0.094;entryDx=0;entryDy=0;entryPerimeter=0;" edge="1" parent="1" source="9T1km2udPO_eC4dJc-jD-1" target="9T1km2udPO_eC4dJc-jD-2">
          <mxGeometry width="50" height="50" relative="1" as="geometry">
            <mxPoint x="390" y="40" as="sourcePoint" />
            <mxPoint x="360" y="80" as="targetPoint" />
          </mxGeometry>
        </mxCell>
        <mxCell id="9T1km2udPO_eC4dJc-jD-5" value="" style="endArrow=classic;html=1;rounded=0;exitX=0.856;exitY=0.908;exitDx=0;exitDy=0;exitPerimeter=0;entryX=0;entryY=0;entryDx=0;entryDy=0;" edge="1" parent="1" source="9T1km2udPO_eC4dJc-jD-1" target="9T1km2udPO_eC4dJc-jD-3">
          <mxGeometry width="50" height="50" relative="1" as="geometry">
            <mxPoint x="370" y="190" as="sourcePoint" />
            <mxPoint x="420" y="140" as="targetPoint" />
          </mxGeometry>
        </mxCell>
        <mxCell id="9T1km2udPO_eC4dJc-jD-6" value="&lt;font style=&quot;font-size: 20px;&quot;&gt;6&lt;/font&gt;" style="ellipse;whiteSpace=wrap;html=1;aspect=fixed;" vertex="1" parent="1">
          <mxGeometry x="450" y="160" width="50" height="50" as="geometry" />
        </mxCell>
        <mxCell id="9T1km2udPO_eC4dJc-jD-7" value="" style="endArrow=classic;html=1;rounded=0;exitX=0.5;exitY=1;exitDx=0;exitDy=0;entryX=0.5;entryY=0;entryDx=0;entryDy=0;" edge="1" parent="1" source="9T1km2udPO_eC4dJc-jD-3" target="9T1km2udPO_eC4dJc-jD-6">
          <mxGeometry width="50" height="50" relative="1" as="geometry">
            <mxPoint x="438" y="55" as="sourcePoint" />
            <mxPoint x="467" y="97" as="targetPoint" />
          </mxGeometry>
        </mxCell>
        <mxCell id="9T1km2udPO_eC4dJc-jD-8" value="&lt;font style=&quot;font-size: 20px;&quot;&gt;7&lt;/font&gt;" style="ellipse;whiteSpace=wrap;html=1;aspect=fixed;" vertex="1" parent="1">
          <mxGeometry x="450" y="240" width="50" height="50" as="geometry" />
        </mxCell>
        <mxCell id="9T1km2udPO_eC4dJc-jD-9" value="" style="endArrow=classic;html=1;rounded=0;exitX=0.5;exitY=1;exitDx=0;exitDy=0;entryX=0.5;entryY=0;entryDx=0;entryDy=0;" edge="1" parent="1" target="9T1km2udPO_eC4dJc-jD-8">
          <mxGeometry width="50" height="50" relative="1" as="geometry">
            <mxPoint x="475" y="210" as="sourcePoint" />
            <mxPoint x="467" y="177" as="targetPoint" />
          </mxGeometry>
        </mxCell>
        <mxCell id="9T1km2udPO_eC4dJc-jD-10" value="" style="curved=1;endArrow=classic;html=1;rounded=0;entryX=0;entryY=0.5;entryDx=0;entryDy=0;exitX=-0.012;exitY=0.58;exitDx=0;exitDy=0;exitPerimeter=0;" edge="1" parent="1" source="9T1km2udPO_eC4dJc-jD-8" target="9T1km2udPO_eC4dJc-jD-6">
          <mxGeometry width="50" height="50" relative="1" as="geometry">
            <mxPoint x="390" y="260" as="sourcePoint" />
            <mxPoint x="440" y="210" as="targetPoint" />
            <Array as="points">
              <mxPoint x="440" y="270" />
              <mxPoint x="420" y="250" />
              <mxPoint x="420" y="220" />
              <mxPoint x="430" y="200" />
            </Array>
          </mxGeometry>
        </mxCell>
        <mxCell id="9T1km2udPO_eC4dJc-jD-11" value="&lt;span style=&quot;font-size: 20px;&quot;&gt;8&lt;br&gt;17&lt;br&gt;&lt;/span&gt;" style="ellipse;whiteSpace=wrap;html=1;aspect=fixed;" vertex="1" parent="1">
          <mxGeometry x="450" y="320" width="50" height="50" as="geometry" />
        </mxCell>
        <mxCell id="9T1km2udPO_eC4dJc-jD-12" value="" style="endArrow=classic;html=1;rounded=0;exitX=0.5;exitY=1;exitDx=0;exitDy=0;entryX=0.5;entryY=0;entryDx=0;entryDy=0;" edge="1" parent="1" target="9T1km2udPO_eC4dJc-jD-11">
          <mxGeometry width="50" height="50" relative="1" as="geometry">
            <mxPoint x="475" y="290" as="sourcePoint" />
            <mxPoint x="467" y="257" as="targetPoint" />
          </mxGeometry>
        </mxCell>
        <mxCell id="9T1km2udPO_eC4dJc-jD-13" value="" style="curved=1;endArrow=classic;html=1;rounded=0;exitX=0.012;exitY=0.665;exitDx=0;exitDy=0;exitPerimeter=0;" edge="1" parent="1" source="9T1km2udPO_eC4dJc-jD-11">
          <mxGeometry width="50" height="50" relative="1" as="geometry">
            <mxPoint x="449" y="354" as="sourcePoint" />
            <mxPoint x="450" y="270" as="targetPoint" />
            <Array as="points">
              <mxPoint x="440" y="355" />
              <mxPoint x="420" y="335" />
              <mxPoint x="420" y="305" />
              <mxPoint x="430" y="285" />
            </Array>
          </mxGeometry>
        </mxCell>
        <mxCell id="9T1km2udPO_eC4dJc-jD-27" value="&lt;font style=&quot;font-size: 20px;&quot;&gt;18&lt;br&gt;24&lt;/font&gt;" style="ellipse;whiteSpace=wrap;html=1;aspect=fixed;" vertex="1" parent="1">
          <mxGeometry x="450" y="400" width="50" height="50" as="geometry" />
        </mxCell>
        <mxCell id="9T1km2udPO_eC4dJc-jD-28" value="" style="curved=1;endArrow=classic;html=1;rounded=0;exitX=1.012;exitY=0.652;exitDx=0;exitDy=0;exitPerimeter=0;entryX=0.996;entryY=0.292;entryDx=0;entryDy=0;entryPerimeter=0;" edge="1" parent="1" source="9T1km2udPO_eC4dJc-jD-8" target="9T1km2udPO_eC4dJc-jD-27">
          <mxGeometry width="50" height="50" relative="1" as="geometry">
            <mxPoint x="490" y="360" as="sourcePoint" />
            <mxPoint x="540" y="310" as="targetPoint" />
            <Array as="points">
              <mxPoint x="530" y="290" />
              <mxPoint x="550" y="320" />
              <mxPoint x="550" y="340" />
              <mxPoint x="550" y="370" />
              <mxPoint x="540" y="390" />
            </Array>
          </mxGeometry>
        </mxCell>
        <mxCell id="9T1km2udPO_eC4dJc-jD-29" value="&lt;font style=&quot;font-size: 20px;&quot;&gt;25&lt;/font&gt;" style="ellipse;whiteSpace=wrap;html=1;aspect=fixed;" vertex="1" parent="1">
          <mxGeometry x="320" y="484" width="50" height="50" as="geometry" />
        </mxCell>
        <mxCell id="9T1km2udPO_eC4dJc-jD-30" value="&lt;font style=&quot;font-size: 20px;&quot;&gt;26&lt;br&gt;27&lt;br&gt;&lt;/font&gt;" style="ellipse;whiteSpace=wrap;html=1;aspect=fixed;" vertex="1" parent="1">
          <mxGeometry x="375" y="485" width="50" height="50" as="geometry" />
        </mxCell>
        <mxCell id="9T1km2udPO_eC4dJc-jD-31" value="" style="endArrow=classic;html=1;rounded=0;entryX=0.798;entryY=0.094;entryDx=0;entryDy=0;entryPerimeter=0;" edge="1" parent="1" target="9T1km2udPO_eC4dJc-jD-29" source="9T1km2udPO_eC4dJc-jD-27">
          <mxGeometry width="50" height="50" relative="1" as="geometry">
            <mxPoint x="407.1578977877165" y="442.5116929120561" as="sourcePoint" />
            <mxPoint x="320" y="484" as="targetPoint" />
          </mxGeometry>
        </mxCell>
        <mxCell id="9T1km2udPO_eC4dJc-jD-32" value="" style="endArrow=classic;html=1;rounded=0;entryX=0.764;entryY=0.058;entryDx=0;entryDy=0;entryPerimeter=0;exitX=0.212;exitY=0.892;exitDx=0;exitDy=0;exitPerimeter=0;" edge="1" parent="1" target="9T1km2udPO_eC4dJc-jD-30" source="9T1km2udPO_eC4dJc-jD-27">
          <mxGeometry width="50" height="50" relative="1" as="geometry">
            <mxPoint x="460" y="450" as="sourcePoint" />
            <mxPoint x="320" y="545" as="targetPoint" />
          </mxGeometry>
        </mxCell>
        <mxCell id="9T1km2udPO_eC4dJc-jD-38" value="&lt;font style=&quot;font-size: 20px;&quot;&gt;28&lt;br&gt;29&lt;br&gt;&lt;/font&gt;" style="ellipse;whiteSpace=wrap;html=1;aspect=fixed;" vertex="1" parent="1">
          <mxGeometry x="430" y="485" width="50" height="50" as="geometry" />
        </mxCell>
        <mxCell id="9T1km2udPO_eC4dJc-jD-39" value="&lt;font style=&quot;font-size: 20px;&quot;&gt;30&lt;br&gt;31&lt;br&gt;&lt;/font&gt;" style="ellipse;whiteSpace=wrap;html=1;aspect=fixed;" vertex="1" parent="1">
          <mxGeometry x="490" y="484" width="50" height="50" as="geometry" />
        </mxCell>
        <mxCell id="9T1km2udPO_eC4dJc-jD-40" value="" style="endArrow=classic;html=1;rounded=0;exitX=0.404;exitY=0.964;exitDx=0;exitDy=0;exitPerimeter=0;entryX=0.5;entryY=0;entryDx=0;entryDy=0;" edge="1" parent="1" target="9T1km2udPO_eC4dJc-jD-38" source="9T1km2udPO_eC4dJc-jD-27">
          <mxGeometry width="50" height="50" relative="1" as="geometry">
            <mxPoint x="438.20000000000005" y="447.9" as="sourcePoint" />
            <mxPoint x="490" y="485" as="targetPoint" />
          </mxGeometry>
        </mxCell>
        <mxCell id="9T1km2udPO_eC4dJc-jD-41" value="" style="endArrow=classic;html=1;rounded=0;exitX=0.708;exitY=0.988;exitDx=0;exitDy=0;exitPerimeter=0;entryX=0.228;entryY=0.076;entryDx=0;entryDy=0;entryPerimeter=0;" edge="1" parent="1" target="9T1km2udPO_eC4dJc-jD-39" source="9T1km2udPO_eC4dJc-jD-27">
          <mxGeometry width="50" height="50" relative="1" as="geometry">
            <mxPoint x="448.5999999999999" y="437.9" as="sourcePoint" />
            <mxPoint x="550" y="545" as="targetPoint" />
          </mxGeometry>
        </mxCell>
        <mxCell id="9T1km2udPO_eC4dJc-jD-42" value="&lt;font style=&quot;font-size: 20px;&quot;&gt;32&lt;br&gt;33&lt;br&gt;&lt;/font&gt;" style="ellipse;whiteSpace=wrap;html=1;aspect=fixed;" vertex="1" parent="1">
          <mxGeometry x="550" y="485" width="50" height="50" as="geometry" />
        </mxCell>
        <mxCell id="9T1km2udPO_eC4dJc-jD-43" value="&lt;font style=&quot;font-size: 20px;&quot;&gt;34&lt;br&gt;35&lt;br&gt;&lt;/font&gt;" style="ellipse;whiteSpace=wrap;html=1;aspect=fixed;" vertex="1" parent="1">
          <mxGeometry x="610" y="484" width="50" height="50" as="geometry" />
        </mxCell>
        <mxCell id="9T1km2udPO_eC4dJc-jD-44" value="" style="endArrow=classic;html=1;rounded=0;exitX=1;exitY=1;exitDx=0;exitDy=0;entryX=0.22;entryY=0.082;entryDx=0;entryDy=0;entryPerimeter=0;" edge="1" parent="1" target="9T1km2udPO_eC4dJc-jD-42" source="9T1km2udPO_eC4dJc-jD-27">
          <mxGeometry width="50" height="50" relative="1" as="geometry">
            <mxPoint x="558" y="448" as="sourcePoint" />
            <mxPoint x="610" y="485" as="targetPoint" />
          </mxGeometry>
        </mxCell>
        <mxCell id="9T1km2udPO_eC4dJc-jD-45" value="" style="endArrow=classic;html=1;rounded=0;exitX=0.98;exitY=0.684;exitDx=0;exitDy=0;exitPerimeter=0;entryX=0;entryY=0;entryDx=0;entryDy=0;" edge="1" parent="1" target="9T1km2udPO_eC4dJc-jD-43" source="9T1km2udPO_eC4dJc-jD-27">
          <mxGeometry width="50" height="50" relative="1" as="geometry">
            <mxPoint x="569" y="438" as="sourcePoint" />
            <mxPoint x="670" y="545" as="targetPoint" />
          </mxGeometry>
        </mxCell>
        <mxCell id="9T1km2udPO_eC4dJc-jD-46" value="&lt;span style=&quot;font-size: 20px;&quot;&gt;25&lt;/span&gt;" style="ellipse;whiteSpace=wrap;html=1;aspect=fixed;" vertex="1" parent="1">
          <mxGeometry x="450" y="590" width="50" height="50" as="geometry" />
        </mxCell>
        <mxCell id="9T1km2udPO_eC4dJc-jD-47" value="" style="endArrow=classic;html=1;rounded=0;exitX=0.428;exitY=0.996;exitDx=0;exitDy=0;exitPerimeter=0;" edge="1" parent="1" source="9T1km2udPO_eC4dJc-jD-39" target="9T1km2udPO_eC4dJc-jD-46">
          <mxGeometry width="50" height="50" relative="1" as="geometry">
            <mxPoint x="490" y="600" as="sourcePoint" />
            <mxPoint x="540" y="550" as="targetPoint" />
          </mxGeometry>
        </mxCell>
        <mxCell id="9T1km2udPO_eC4dJc-jD-48" value="" style="endArrow=classic;html=1;rounded=0;exitX=0.5;exitY=1;exitDx=0;exitDy=0;entryX=0.348;entryY=-0.012;entryDx=0;entryDy=0;entryPerimeter=0;" edge="1" parent="1" source="9T1km2udPO_eC4dJc-jD-38" target="9T1km2udPO_eC4dJc-jD-46">
          <mxGeometry width="50" height="50" relative="1" as="geometry">
            <mxPoint x="468" y="535" as="sourcePoint" />
            <mxPoint x="442" y="593" as="targetPoint" />
          </mxGeometry>
        </mxCell>
        <mxCell id="9T1km2udPO_eC4dJc-jD-49" value="" style="endArrow=classic;html=1;rounded=0;exitX=0;exitY=1;exitDx=0;exitDy=0;entryX=0.82;entryY=0.092;entryDx=0;entryDy=0;entryPerimeter=0;" edge="1" parent="1" source="9T1km2udPO_eC4dJc-jD-42" target="9T1km2udPO_eC4dJc-jD-46">
          <mxGeometry width="50" height="50" relative="1" as="geometry">
            <mxPoint x="531" y="554" as="sourcePoint" />
            <mxPoint x="505" y="612" as="targetPoint" />
          </mxGeometry>
        </mxCell>
        <mxCell id="9T1km2udPO_eC4dJc-jD-50" value="" style="endArrow=classic;html=1;rounded=0;exitX=0.052;exitY=0.804;exitDx=0;exitDy=0;exitPerimeter=0;" edge="1" parent="1" source="9T1km2udPO_eC4dJc-jD-43" target="9T1km2udPO_eC4dJc-jD-46">
          <mxGeometry width="50" height="50" relative="1" as="geometry">
            <mxPoint x="541" y="564" as="sourcePoint" />
            <mxPoint x="515" y="622" as="targetPoint" />
          </mxGeometry>
        </mxCell>
        <mxCell id="9T1km2udPO_eC4dJc-jD-51" value="" style="endArrow=classic;html=1;rounded=0;exitX=0.816;exitY=0.928;exitDx=0;exitDy=0;exitPerimeter=0;entryX=0;entryY=0;entryDx=0;entryDy=0;" edge="1" parent="1" source="9T1km2udPO_eC4dJc-jD-30" target="9T1km2udPO_eC4dJc-jD-46">
          <mxGeometry width="50" height="50" relative="1" as="geometry">
            <mxPoint x="551" y="574" as="sourcePoint" />
            <mxPoint x="525" y="632" as="targetPoint" />
          </mxGeometry>
        </mxCell>
        <mxCell id="9T1km2udPO_eC4dJc-jD-52" value="" style="endArrow=classic;html=1;rounded=0;exitX=0.788;exitY=0.9;exitDx=0;exitDy=0;exitPerimeter=0;entryX=0.028;entryY=0.228;entryDx=0;entryDy=0;entryPerimeter=0;" edge="1" parent="1" source="9T1km2udPO_eC4dJc-jD-29" target="9T1km2udPO_eC4dJc-jD-46">
          <mxGeometry width="50" height="50" relative="1" as="geometry">
            <mxPoint x="561" y="584" as="sourcePoint" />
            <mxPoint x="535" y="642" as="targetPoint" />
          </mxGeometry>
        </mxCell>
      </root>
    </mxGraphModel>
  </diagram>
</mxfile>
